<?xml version="1.0" encoding="utf-8"?>
<!-- Generator: Adobe Illustrator 23.0.5, SVG Export Plug-In . SVG Version: 6.00 Build 0)  -->
<svg version="1.1" id="Capa_1" xmlns="http://www.w3.org/2000/svg" xmlns:xlink="http://www.w3.org/1999/xlink" x="0px" y="0px"
	 viewBox="0 0 198.4 198.4" style="enable-background:new 0 0 198.4 198.4;" xml:space="preserve">
<style type="text/css">
	.st0{display:none;}
	.st1{display:inline;}
	.st2{fill:#1D1D1B;}
	.st3{fill:#FFDE00;}
	.st4{fill:#F3FFE3;}
	.st5{fill:#EB758F;}
	.st6{display:inline;fill-rule:evenodd;clip-rule:evenodd;fill:#F3FFE3;}
	.st7{display:inline;fill:none;}
	.st8{fill:#1A3541;stroke:#EB758F;stroke-width:4;stroke-miterlimit:10;}
	.st9{display:inline;fill:#EB758F;stroke:#EB758F;stroke-width:8;stroke-linecap:round;stroke-linejoin:round;}
</style>
<g class="st0">
	<g class="st1">
		<circle class="st2" cx="99.2" cy="99.2" r="67.5"/>
		<g>
			<g>
				<path class="st3" d="M99.2,64.4c11.3,0,12.7,0,17.2,0.3c4.1,0.2,6.4,0.9,7.9,1.5c2,0.8,3.4,1.7,4.9,3.2s2.4,2.9,3.2,4.9
					c0.6,1.5,1.3,3.8,1.5,7.9c0.2,4.5,0.3,5.8,0.3,17.2s0,12.7-0.3,17.2c-0.2,4.1-0.9,6.4-1.5,7.9c-0.8,2-1.7,3.4-3.2,4.9
					c-1.5,1.5-2.9,2.4-4.9,3.2c-1.5,0.6-3.8,1.3-7.9,1.5c-4.5,0.2-5.8,0.3-17.2,0.3s-12.7,0-17.2-0.3c-4.1-0.2-6.4-0.9-7.9-1.5
					c-2-0.8-3.4-1.7-4.9-3.2c-1.5-1.5-2.4-2.9-3.2-4.9c-0.6-1.5-1.3-3.8-1.5-7.9c-0.2-4.5-0.3-5.8-0.3-17.2s0-12.7,0.3-17.2
					c0.2-4.1,0.9-6.4,1.5-7.9c0.8-2,1.7-3.4,3.2-4.9s2.9-2.4,4.9-3.2c1.5-0.6,3.8-1.3,7.9-1.5C86.5,64.4,87.9,64.4,99.2,64.4
					 M99.2,56.7c-11.5,0-13,0-17.5,0.3c-4.5,0.2-7.6,0.9-10.3,2c-2.8,1.1-5.2,2.5-7.5,4.9c-2.4,2.4-3.8,4.7-4.9,7.5
					c-1,2.7-1.8,5.8-2,10.3s-0.3,6-0.3,17.5s0,13,0.3,17.5c0.2,4.5,0.9,7.6,2,10.3c1.1,2.8,2.5,5.2,4.9,7.5c2.4,2.4,4.7,3.8,7.5,4.9
					c2.7,1.1,5.8,1.8,10.3,2c4.5,0.2,6,0.3,17.5,0.3s13-0.1,17.5-0.3c4.5-0.2,7.6-0.9,10.3-2c2.8-1.1,5.2-2.5,7.5-4.9
					c2.4-2.4,3.8-4.7,4.9-7.5c1.1-2.7,1.8-5.8,2-10.3c0.2-4.5,0.3-6,0.3-17.5s-0.1-13-0.3-17.5c-0.2-4.5-0.9-7.6-2-10.3
					c-1.1-2.8-2.5-5.2-4.9-7.5c-2.4-2.4-4.7-3.8-7.5-4.9c-2.7-1-5.8-1.8-10.3-2C112.2,56.8,110.8,56.7,99.2,56.7L99.2,56.7z"/>
				<path class="st3" d="M99.2,77.4c-12.1,0-21.8,9.8-21.8,21.8S87.2,121,99.2,121s21.8-9.8,21.8-21.8S111.3,77.4,99.2,77.4z
					 M99.2,113.4c-7.8,0-14.2-6.3-14.2-14.2S91.4,85,99.2,85s14.2,6.3,14.2,14.2S107,113.4,99.2,113.4z"/>
				<circle class="st3" cx="121.9" cy="76.5" r="5.1"/>
			</g>
		</g>
	</g>
</g>
<path class="st4" d="M166.7,99.2c0-37.3-30.2-67.5-67.5-67.5S31.7,61.9,31.7,99.2c0,33.7,24.7,61.6,56.9,66.7v-47.2H71.5V99.2h17.1
	V84.3c0-16.9,10.1-26.3,25.5-26.3c7.4,0,15.1,1.3,15.1,1.3V76h-8.5c-8.4,0-11,5.2-11,10.5v12.7h18.7l-3,19.5h-15.7v47.2
	C142,160.8,166.7,132.9,166.7,99.2z"/>
<path class="st5" d="M125.5,118.7l3-19.5h-18.7V86.6c0-5.3,2.6-10.5,11-10.5h8.5V59.4c0,0-7.7-1.3-15.1-1.3
	c-15.4,0-25.5,9.3-25.5,26.3v14.9H71.5v19.5h17.1v47.2c3.4,0.5,7,0.8,10.6,0.8c3.6,0,7.1-0.3,10.6-0.8v-47.2L125.5,118.7
	L125.5,118.7z"/>
<g class="st0">
	<circle class="st6" cx="99.2" cy="99.2" r="67.5"/>
	<g class="st1">
		<g>
			<path class="st5" d="M119.5,141.8h-14.2c-12.8,0-22.4-6.6-22.4-22.4V94.2H71.2V80.5C84,77.2,89.4,66.2,90,56.6h13.3v21.7h15.5
				v15.9h-15.5v22c0,6.6,3.3,8.9,8.6,8.9h7.5L119.5,141.8L119.5,141.8z"/>
		</g>
	</g>
</g>
<g class="st0">
	<line class="st7" x1="99.2" y1="33.4" x2="99.2" y2="31.5"/>
	<line class="st7" x1="99.2" y1="161.5" x2="99.2" y2="77.1"/>
	<g class="st1">
		<circle class="st8" cx="98.2" cy="99.4" r="81.9"/>
	</g>
	<line class="st9" x1="98.2" y1="163.4" x2="98.2" y2="79.1"/>
	<g class="st1">
		<path class="st5" d="M121,79.1H75.5c-1.7,0-2.7-1.8-1.9-3.3l22.8-39.4c0.4-0.7,1.1-1.1,1.9-1.1c0.7,0,1.5,0.4,1.9,1.1l22.8,39.4
			C123.7,77.3,122.7,79.1,121,79.1z"/>
	</g>
</g>
</svg>
