<?xml version="1.0" encoding="utf-8"?>
<!-- Generator: Adobe Illustrator 23.0.5, SVG Export Plug-In . SVG Version: 6.00 Build 0)  -->
<svg version="1.1" id="Capa_1" xmlns="http://www.w3.org/2000/svg" xmlns:xlink="http://www.w3.org/1999/xlink" x="0px" y="0px"
	 viewBox="0 0 589.2 213.3" style="enable-background:new 0 0 589.2 213.3;" xml:space="preserve">
<style type="text/css">
	.st0{fill:#F3FFE3;}
	.st1{fill:#1A3541;}
	.st2{fill:#EB758F;}
</style>
<rect x="124.1" y="6.1" class="st0" width="437.9" height="189.6"/>
<g>
	<g>
		<polygon class="st1" points="514.5,100.5 441.8,173.4 426.8,173.4 507.1,93.1 		"/>
	</g>
</g>
<g>
	<g>
		<polygon class="st1" points="514.5,100.5 507.1,108 426.7,27.5 441.8,27.7 		"/>
	</g>
</g>
<g>
	<g>
		
			<rect x="495.1" y="144.4" transform="matrix(0.7071 -0.7071 0.7071 0.7071 47.4826 413.8768)" class="st2" width="56.5" height="10.5"/>
	</g>
</g>
<g>
	<g>
		
			<rect x="518.2" y="88.5" transform="matrix(0.7071 -0.7071 0.7071 0.7071 70.6568 404.3508)" class="st2" width="10.5" height="56.8"/>
	</g>
</g>
<g>
	<g>
		
			<rect x="495.1" y="79.2" transform="matrix(0.7071 -0.7071 0.7071 0.7071 93.5514 394.7894)" class="st2" width="56.5" height="10.5"/>
	</g>
</g>
<g>
	<g>
		
			<rect x="518.2" y="23.4" transform="matrix(0.7071 -0.7071 0.7071 0.7071 116.7254 385.2631)" class="st2" width="10.5" height="56.8"/>
	</g>
</g>
<g>
	<g>
		<polygon class="st1" points="499.7,63.9 507.1,56.4 547.1,96.5 547.4,111.5 		"/>
	</g>
</g>
<g>
	<g>
		
			<rect x="435.5" y="86" transform="matrix(0.7072 -0.7071 0.7071 0.7072 75.9478 365.8158)" class="st1" width="88.3" height="10.5"/>
	</g>
</g>
<path class="st2" d="M159.4,55.1h17.4l13.3,81.6h-12.8l-2.3-16.2v0.2h-14.7l-2.3,16h-11.9L159.4,55.1z M173.4,109.7l-5.7-40.3h-0.2
	l-5.6,40.3H173.4z"/>
<path class="st1" d="M205.6,55.6h12.9v69.9h21.1v11.7h-34V55.6L205.6,55.6z"/>
<path class="st1" d="M257.3,55.6h17.4l13.3,81.6h-12.9l-2.3-16.2v0.2h-14.6l-2.3,16H244L257.3,55.6z M271.4,110.1l-5.7-40.3h-0.2
	l-5.7,40.3H271.4z"/>
<path class="st1" d="M295.4,55.6h12.9v69.9h21.1v11.7h-34V55.6z"/>
<path class="st1" d="M336.8,55.6h19.4c13.3,0,19,6.2,19,18.7v3.3c0,8.4-2.6,13.7-8.3,16v0.2c6.9,2.3,9.6,8.4,9.6,17v7
	c0,12.6-6.7,19.3-19.5,19.3h-20.2V55.6z M354.7,88.8c4.8,0,7.7-2.1,7.7-8.6v-4.6c0-5.8-2-8.4-6.5-8.4h-6.2v21.5H354.7z M357,125.5
	c4.3,0,6.7-2,6.7-8.1v-7.1c0-7.6-2.5-9.9-8.3-9.9h-5.7v25H357z"/>
<path class="st1" d="M395.1,55.6h17.4l13.3,81.6H413l-2.3-16.2v0.2H396l-2.3,16h-11.9L395.1,55.6z M409.1,110.1l-5.7-40.3h-0.2
	l-5.7,40.3H409.1z"/>
</svg>
